<svg id="visual" viewBox="0 0 900 600" width="900" height="600" xmlns="http://www.w3.org/2000/svg" xmlns:xlink="http://www.w3.org/1999/xlink" version="1.1"><rect x="0" y="0" width="900" height="600" fill="#002233"></rect><path d="M0 462L21.5 447.7C43 433.3 86 404.7 128.8 405C171.7 405.3 214.3 434.7 257.2 453C300 471.3 343 478.7 385.8 471.3C428.7 464 471.3 442 514.2 445.7C557 449.3 600 478.7 642.8 487.7C685.7 496.7 728.3 485.3 771.2 484.2C814 483 857 492 878.5 496.5L900 501L900 601L878.5 601C857 601 814 601 771.2 601C728.3 601 685.7 601 642.8 601C600 601 557 601 514.2 601C471.3 601 428.7 601 385.8 601C343 601 300 601 257.2 601C214.3 601 171.7 601 128.8 601C86 601 43 601 21.5 601L0 601Z" fill="#0066FF" stroke-linecap="round" stroke-linejoin="miter"></path></svg>